# xmcd
#
# Track frame offsets: 
#        150
#        14201
#        30189
#        49427
#        63577
#        78867
#        94347
#        115275
#        131169
#        145533
#
# Disc length: 2130 seconds
#
# Revision: 0
# Processed by: cddbd v1.5.2PL0 Copyright (c) Steve Scherf et al.
# Submitted via: ExactAudioCopy v0.99pb5
#
DISCID=8908500a
DTITLE=Brock - Can't Get Enough
DYEAR=2013
DGENRE=Country
TTITLE0=Back That Truck Up
TTITLE1=Nobody Like Me
TTITLE2=Southern Comfort Dream
TTITLE3=Just Can't Get Enough
TTITLE4=Hangin' with the Boys
TTITLE5=Makin' Up (Is Worth Fighting For)
TTITLE6=What She Does to Me
TTITLE7=Knowing Better
TTITLE8=Nothin' Sweet About Alabama
TTITLE9=Good Lord Willing
EXTD=
EXTT0=
EXTT1=
EXTT2=
EXTT3=
EXTT4=
EXTT5=
EXTT6=
EXTT7=
EXTT8=
EXTT9=
PLAYORDER=
